<svg fill="none" height="36" viewBox="0 0 36 36" width="36" xmlns="http://www.w3.org/2000/svg">
    <circle cx="18" cy="18" fill="#DB3022" r="18" />
    <path
        d="M24.3749 23.0484L23.3333 13.2485C23.3333 12.6324 22.856 12.1333 22.2667 12.1333H18H13.7333C13.144 12.1333 12.6667 12.6324 12.6667 13.2485L11.6251 23.0484C11.6096 23.1248 11.6 23.2034 11.6 23.2849C11.6 23.901 12.0773 24.4 12.6667 24.4H18H23.3333C23.9227 24.4 24.4 23.901 24.4 23.2849C24.4 23.2034 24.3904 23.1248 24.3749 23.0484ZM20.6667 14.8699V15.4788C20.6667 17.016 19.4704 18.2667 18 18.2667C16.5296 18.2667 15.3333 17.016 15.3333 15.4788V14.8699C15.0235 14.7551 14.8 14.4484 14.8 14.0849C14.8 13.6232 15.1584 13.2485 15.6 13.2485C16.0416 13.2485 16.4 13.6232 16.4 14.0849V15.4788C16.4 16.401 17.1179 17.1515 18 17.1515C18.8821 17.1515 19.6 16.401 19.6 15.4788V14.0849C19.6 13.6232 19.9584 13.2485 20.4 13.2485C20.8416 13.2485 21.2 13.6232 21.2 14.0849C21.2 14.4484 20.9765 14.7551 20.6667 14.8699Z"
        fill="#F9F9F9" />
</svg>
